<svg width="256" height="41" viewBox="0 0 256 41" fill="none" xmlns="http://www.w3.org/2000/svg">
<path d="M67.0372 32.924H54.1992L52.1412 39H43.3702L55.8162 4.602H65.5182L77.9642 39H69.0952L67.0372 32.924ZM64.8812 26.456L60.6182 13.863L56.4042 26.456H64.8812ZM76.1661 25.329C76.1661 22.487 76.7378 20.0043 77.8811 17.881C79.0571 15.7577 80.6741 14.1243 82.7321 12.981C84.8228 11.8377 87.2075 11.266 89.8861 11.266C93.3161 11.266 96.1745 12.1643 98.4611 13.961C100.78 15.7577 102.299 18.2893 103.018 21.556H94.1001C93.3488 19.4653 91.8951 18.42 89.7391 18.42C88.2038 18.42 86.9788 19.0243 86.0641 20.233C85.1495 21.409 84.6921 23.1077 84.6921 25.329C84.6921 27.5503 85.1495 29.2653 86.0641 30.474C86.9788 31.65 88.2038 32.238 89.7391 32.238C91.8951 32.238 93.3488 31.1927 94.1001 29.102H103.018C102.299 32.3033 100.78 34.8187 98.4611 36.648C96.1418 38.4773 93.2835 39.392 89.8861 39.392C87.2075 39.392 84.8228 38.8203 82.7321 37.677C80.6741 36.5337 79.0571 34.9003 77.8811 32.777C76.7378 30.6537 76.1661 28.171 76.1661 25.329ZM129.354 24.888C129.354 25.672 129.305 26.4887 129.207 27.338H110.244C110.375 29.0367 110.914 30.3433 111.861 31.258C112.841 32.14 114.033 32.581 115.438 32.581C117.529 32.581 118.982 31.699 119.799 29.935H128.717C128.26 31.7317 127.427 33.3487 126.218 34.786C125.042 36.2233 123.556 37.3503 121.759 38.167C119.962 38.9837 117.953 39.392 115.732 39.392C113.053 39.392 110.669 38.8203 108.578 37.677C106.487 36.5337 104.854 34.9003 103.678 32.777C102.502 30.6537 101.914 28.171 101.914 25.329C101.914 22.487 102.486 20.0043 103.629 17.881C104.805 15.7577 106.438 14.1243 108.529 12.981C110.62 11.8377 113.021 11.266 115.732 11.266C118.378 11.266 120.73 11.8213 122.788 12.932C124.846 14.0427 126.447 15.627 127.59 17.685C128.766 19.743 129.354 22.144 129.354 24.888ZM120.779 22.683C120.779 21.2457 120.289 20.1023 119.309 19.253C118.329 18.4037 117.104 17.979 115.634 17.979C114.229 17.979 113.037 18.3873 112.057 19.204C111.11 20.0207 110.522 21.1803 110.293 22.683H120.779ZM128.188 25.329C128.188 22.487 128.76 20.0043 129.903 17.881C131.079 15.7577 132.696 14.1243 134.754 12.981C136.845 11.8377 139.23 11.266 141.908 11.266C145.338 11.266 148.197 12.1643 150.483 13.961C152.803 15.7577 154.322 18.2893 155.04 21.556H146.122C145.371 19.4653 143.917 18.42 141.761 18.42C140.226 18.42 139.001 19.0243 138.086 20.233C137.172 21.409 136.714 23.1077 136.714 25.329C136.714 27.5503 137.172 29.2653 138.086 30.474C139.001 31.65 140.226 32.238 141.761 32.238C143.917 32.238 145.371 31.1927 146.122 29.102H155.04C154.322 32.3033 152.803 34.8187 150.483 36.648C148.164 38.4773 145.306 39.392 141.908 39.392C139.23 39.392 136.845 38.8203 134.754 37.677C132.696 36.5337 131.079 34.9003 129.903 32.777C128.76 30.6537 128.188 28.171 128.188 25.329ZM168.048 39.392C165.37 39.392 162.952 38.8203 160.796 37.677C158.673 36.5337 156.991 34.9003 155.749 32.777C154.541 30.6537 153.936 28.171 153.936 25.329C153.936 22.5197 154.557 20.0533 155.798 17.93C157.04 15.774 158.738 14.1243 160.894 12.981C163.05 11.8377 165.468 11.266 168.146 11.266C170.825 11.266 173.242 11.8377 175.398 12.981C177.554 14.1243 179.253 15.774 180.494 17.93C181.736 20.0533 182.356 22.5197 182.356 25.329C182.356 28.1383 181.719 30.621 180.445 32.777C179.204 34.9003 177.489 36.5337 175.3 37.677C173.144 38.8203 170.727 39.392 168.048 39.392ZM168.048 32.14C169.649 32.14 171.005 31.552 172.115 30.376C173.259 29.2 173.83 27.5177 173.83 25.329C173.83 23.1403 173.275 21.458 172.164 20.282C171.086 19.106 169.747 18.518 168.146 18.518C166.513 18.518 165.157 19.106 164.079 20.282C163.001 21.4253 162.462 23.1077 162.462 25.329C162.462 27.5177 162.985 29.2 164.03 30.376C165.108 31.552 166.448 32.14 168.048 32.14ZM181.216 25.28C181.216 22.4707 181.738 20.0043 182.784 17.881C183.862 15.7577 185.315 14.1243 187.145 12.981C188.974 11.8377 191.016 11.266 193.27 11.266C195.066 11.266 196.7 11.6417 198.17 12.393C199.672 13.1443 200.848 14.157 201.698 15.431V2.74H210.077V39H201.698V35.08C200.914 36.3867 199.787 37.432 198.317 38.216C196.879 39 195.197 39.392 193.27 39.392C191.016 39.392 188.974 38.8203 187.145 37.677C185.315 36.501 183.862 34.8513 182.784 32.728C181.738 30.572 181.216 28.0893 181.216 25.28ZM201.698 25.329C201.698 23.2383 201.11 21.5887 199.934 20.38C198.79 19.1713 197.386 18.567 195.72 18.567C194.054 18.567 192.633 19.1713 191.457 20.38C190.313 21.556 189.742 23.1893 189.742 25.28C189.742 27.3707 190.313 29.0367 191.457 30.278C192.633 31.4867 194.054 32.091 195.72 32.091C197.386 32.091 198.79 31.4867 199.934 30.278C201.11 29.0693 201.698 27.4197 201.698 25.329ZM237.992 24.888C237.992 25.672 237.943 26.4887 237.845 27.338H218.882C219.013 29.0367 219.552 30.3433 220.499 31.258C221.479 32.14 222.672 32.581 224.076 32.581C226.167 32.581 227.621 31.699 228.437 29.935H237.355C236.898 31.7317 236.065 33.3487 234.856 34.786C233.68 36.2233 232.194 37.3503 230.397 38.167C228.601 38.9837 226.592 39.392 224.37 39.392C221.692 39.392 219.307 38.8203 217.216 37.677C215.126 36.5337 213.492 34.9003 212.316 32.777C211.14 30.6537 210.552 28.171 210.552 25.329C210.552 22.487 211.124 20.0043 212.267 17.881C213.443 15.7577 215.077 14.1243 217.167 12.981C219.258 11.8377 221.659 11.266 224.37 11.266C227.016 11.266 229.368 11.8213 231.426 12.932C233.484 14.0427 235.085 15.627 236.228 17.685C237.404 19.743 237.992 22.144 237.992 24.888ZM229.417 22.683C229.417 21.2457 228.927 20.1023 227.947 19.253C226.967 18.4037 225.742 17.979 224.272 17.979C222.868 17.979 221.675 18.3873 220.695 19.204C219.748 20.0207 219.16 21.1803 218.931 22.683H229.417ZM246.872 16.215C247.852 14.7123 249.077 13.5363 250.547 12.687C252.017 11.805 253.65 11.364 255.447 11.364V20.233H253.144C251.053 20.233 249.485 20.6903 248.44 21.605C247.394 22.487 246.872 24.055 246.872 26.309V39H238.493V11.658H246.872V16.215Z" fill="#F0F0F0"/>
<path fill-rule="evenodd" clip-rule="evenodd" d="M4.84614 2C2.16971 2 0 4.15862 0 6.82143V34.8416C0 37.5043 2.16971 39.663 4.84614 39.663H22.6711C25.3475 39.663 27.5173 37.5043 27.5173 34.8416V6.82143C27.5173 4.15862 25.3475 2 22.6711 2H4.84614ZM19.7931 20.8315C19.7931 18.725 15.7701 14.5136 13.7586 13.25C11.7471 14.5136 7.72414 18.14 7.72414 20.8315C7.72414 23.106 8.47846 24.6223 10.7414 24.6223C11.7547 24.6223 12.5002 24.068 13.0043 23.4913V26.8967H11.4957V28.413H16.0216V27.6549V26.8967H14.5129V23.4913C15.017 24.068 15.7625 24.6223 16.7759 24.6223C19.0388 24.6223 19.7931 22.9381 19.7931 20.8315Z" fill="#F0F0F0"/>
<path fill-rule="evenodd" clip-rule="evenodd" d="M29.9572 22.2329L35.4204 11.8297C36.66 9.4696 35.757 6.52792 33.4037 5.25931L30.034 3.44259C29.9949 3.42151 29.9557 3.401 29.9163 3.3811C29.9432 3.58707 29.9572 3.79713 29.9572 4.01043V22.2329Z" fill="#F0F0F0"/>
</svg>
